<svg width="232" height="93" viewBox="0 0 232 93" fill="none" xmlns="http://www.w3.org/2000/svg">
<path d="M4.01172 48.9375H6.98828L11.3711 61.4648L15.7539 48.9375H18.7305L12.5664 66H10.1758L4.01172 48.9375ZM2.40625 48.9375H5.37109L5.91016 61.1484V66H2.40625V48.9375ZM17.3711 48.9375H20.3477V66H16.832V61.1484L17.3711 48.9375ZM23.3828 64.3711C23.3828 63.8711 23.5547 63.4531 23.8984 63.1172C24.25 62.7812 24.7148 62.6133 25.293 62.6133C25.8711 62.6133 26.332 62.7812 26.6758 63.1172C27.0273 63.4531 27.2031 63.8711 27.2031 64.3711C27.2031 64.8711 27.0273 65.2891 26.6758 65.625C26.332 65.9609 25.8711 66.1289 25.293 66.1289C24.7148 66.1289 24.25 65.9609 23.8984 65.625C23.5547 65.2891 23.3828 64.8711 23.3828 64.3711ZM38.0195 48.9375V66H34.5156V48.9375H38.0195ZM43.2695 48.9375V51.6914H29.3477V48.9375H43.2695ZM42.3438 64.3711C42.3438 63.8711 42.5156 63.4531 42.8594 63.1172C43.2109 62.7812 43.6758 62.6133 44.2539 62.6133C44.832 62.6133 45.293 62.7812 45.6367 63.1172C45.9883 63.4531 46.1641 63.8711 46.1641 64.3711C46.1641 64.8711 45.9883 65.2891 45.6367 65.625C45.293 65.9609 44.832 66.1289 44.2539 66.1289C43.6758 66.1289 43.2109 65.9609 42.8594 65.625C42.5156 65.2891 42.3438 64.8711 42.3438 64.3711ZM65.2188 60.3398H68.7227C68.6523 61.4883 68.3359 62.5078 67.7734 63.3984C67.2188 64.2891 66.4414 64.9844 65.4414 65.4844C64.4492 65.9844 63.2539 66.2344 61.8555 66.2344C60.7617 66.2344 59.7812 66.0469 58.9141 65.6719C58.0469 65.2891 57.3047 64.7422 56.6875 64.0312C56.0781 63.3203 55.6133 62.4609 55.293 61.4531C54.9727 60.4453 54.8125 59.3164 54.8125 58.0664V56.8828C54.8125 55.6328 54.9766 54.5039 55.3047 53.4961C55.6406 52.4805 56.1172 51.6172 56.7344 50.9062C57.3594 50.1953 58.1055 49.6484 58.9727 49.2656C59.8398 48.8828 60.8086 48.6914 61.8789 48.6914C63.3008 48.6914 64.5 48.9492 65.4766 49.4648C66.4609 49.9805 67.2227 50.6914 67.7617 51.5977C68.3086 52.5039 68.6367 53.5352 68.7461 54.6914H65.2305C65.1914 54.0039 65.0547 53.4219 64.8203 52.9453C64.5859 52.4609 64.2305 52.0977 63.7539 51.8555C63.2852 51.6055 62.6602 51.4805 61.8789 51.4805C61.293 51.4805 60.7812 51.5898 60.3438 51.8086C59.9062 52.0273 59.5391 52.3594 59.2422 52.8047C58.9453 53.25 58.7227 53.8125 58.5742 54.4922C58.4336 55.1641 58.3633 55.9531 58.3633 56.8594V58.0664C58.3633 58.9492 58.4297 59.7266 58.5625 60.3984C58.6953 61.0625 58.8984 61.625 59.1719 62.0859C59.4531 62.5391 59.8125 62.8828 60.25 63.1172C60.6953 63.3438 61.2305 63.457 61.8555 63.457C62.5898 63.457 63.1953 63.3398 63.6719 63.1055C64.1484 62.8711 64.5117 62.5234 64.7617 62.0625C65.0195 61.6016 65.1719 61.0273 65.2188 60.3398ZM74.3828 48V66H70.9961V48H74.3828ZM80.7344 53.3203V66H77.3477V53.3203H80.7344ZM77.1367 50.0156C77.1367 49.5234 77.3086 49.1172 77.6523 48.7969C77.9961 48.4766 78.457 48.3164 79.0352 48.3164C79.6055 48.3164 80.0625 48.4766 80.4062 48.7969C80.7578 49.1172 80.9336 49.5234 80.9336 50.0156C80.9336 50.5078 80.7578 50.9141 80.4062 51.2344C80.0625 51.5547 79.6055 51.7148 79.0352 51.7148C78.457 51.7148 77.9961 51.5547 77.6523 51.2344C77.3086 50.9141 77.1367 50.5078 77.1367 50.0156ZM86.8984 55.9453V66H83.5117V53.3203H86.6875L86.8984 55.9453ZM86.4297 59.2148H85.4922C85.4922 58.332 85.5977 57.5195 85.8086 56.7773C86.0273 56.0273 86.3438 55.3789 86.7578 54.832C87.1797 54.2773 87.6992 53.8477 88.3164 53.543C88.9336 53.2383 89.6484 53.0859 90.4609 53.0859C91.0234 53.0859 91.5391 53.1719 92.0078 53.3438C92.4766 53.5078 92.8789 53.7695 93.2148 54.1289C93.5586 54.4805 93.8242 54.9414 94.0117 55.5117C94.1992 56.0742 94.293 56.75 94.293 57.5391V66H90.918V57.9141C90.918 57.3359 90.8398 56.8906 90.6836 56.5781C90.5273 56.2656 90.3047 56.0469 90.0156 55.9219C89.7344 55.7969 89.3945 55.7344 88.9961 55.7344C88.5586 55.7344 88.1758 55.8242 87.8477 56.0039C87.5273 56.1836 87.2617 56.4336 87.0508 56.7539C86.8398 57.0664 86.6836 57.4336 86.582 57.8555C86.4805 58.2773 86.4297 58.7305 86.4297 59.2148ZM93.9766 58.8281L92.7695 58.9805C92.7695 58.1523 92.8711 57.3828 93.0742 56.6719C93.2852 55.9609 93.5938 55.3359 94 54.7969C94.4141 54.2578 94.9258 53.8398 95.5352 53.543C96.1445 53.2383 96.8477 53.0859 97.6445 53.0859C98.2539 53.0859 98.8086 53.1758 99.3086 53.3555C99.8086 53.5273 100.234 53.8047 100.586 54.1875C100.945 54.5625 101.219 55.0547 101.406 55.6641C101.602 56.2734 101.699 57.0195 101.699 57.9023V66H98.3125V57.9023C98.3125 57.3164 98.2344 56.8711 98.0781 56.5664C97.9297 56.2539 97.7109 56.0391 97.4219 55.9219C97.1406 55.7969 96.8047 55.7344 96.4141 55.7344C96.0078 55.7344 95.6523 55.8164 95.3477 55.9805C95.043 56.1367 94.7891 56.3555 94.5859 56.6367C94.3828 56.918 94.2305 57.2461 94.1289 57.6211C94.0273 57.9883 93.9766 58.3906 93.9766 58.8281Z" fill="black"/>
<rect x="113" y="57" width="97" height="10" fill="#E10B0B"/>
<path d="M210 67V30L220 40V67H210Z" fill="#E10B0B"/>
<path d="M210 13.5V-7.62939e-06H220V23.5771L210 13.5Z" fill="#E10B0B"/>
<rect x="113" y="45" width="60" height="10" fill="#365DDC"/>
<path d="M173 55V44.5L183 34.5V55H173Z" fill="#365DDC"/>
<path fill-rule="evenodd" clip-rule="evenodd" d="M215.038 19.7376L198.3 3L193.184 8.11572L191.229 10.0711L167.8 33.5H113V43.5H172V43.4421L198.3 17.1421L224.704 43.5462L231.775 36.4751L215.038 19.7376Z" fill="#AEAEAE"/>
<path d="M6.46974 86.0967H3.81056V85.0234H6.46974C6.98472 85.0234 7.40171 84.9414 7.72072 84.7773C8.03973 84.6133 8.27215 84.3854 8.41798 84.0938C8.56837 83.8021 8.64357 83.4694 8.64357 83.0957C8.64357 82.7539 8.56837 82.4326 8.41798 82.1318C8.27215 81.8311 8.03973 81.5895 7.72072 81.4072C7.40171 81.2204 6.98472 81.127 6.46974 81.127H4.11818V90H2.79884V80.0469H6.46974C7.22169 80.0469 7.85744 80.1768 8.37697 80.4365C8.8965 80.6963 9.29071 81.0563 9.55959 81.5166C9.82847 81.9723 9.96291 82.4941 9.96291 83.082C9.96291 83.7201 9.82847 84.2646 9.55959 84.7158C9.29071 85.167 8.8965 85.5111 8.37697 85.748C7.85744 85.9805 7.22169 86.0967 6.46974 86.0967ZM14.2288 86.3838V86.2266C14.2288 85.6934 14.3063 85.1989 14.4612 84.7432C14.6162 84.2829 14.8395 83.8841 15.1311 83.5469C15.4228 83.2051 15.776 82.9408 16.1907 82.7539C16.6054 82.5625 17.0703 82.4668 17.5852 82.4668C18.1048 82.4668 18.5719 82.5625 18.9866 82.7539C19.4059 82.9408 19.7614 83.2051 20.053 83.5469C20.3492 83.8841 20.5748 84.2829 20.7298 84.7432C20.8847 85.1989 20.9622 85.6934 20.9622 86.2266V86.3838C20.9622 86.917 20.8847 87.4115 20.7298 87.8672C20.5748 88.3229 20.3492 88.7217 20.053 89.0635C19.7614 89.4007 19.4082 89.665 18.9935 89.8564C18.5833 90.0433 18.1185 90.1367 17.5989 90.1367C17.0794 90.1367 16.6123 90.0433 16.1976 89.8564C15.7828 89.665 15.4274 89.4007 15.1311 89.0635C14.8395 88.7217 14.6162 88.3229 14.4612 87.8672C14.3063 87.4115 14.2288 86.917 14.2288 86.3838ZM15.4935 86.2266V86.3838C15.4935 86.7529 15.5367 87.1016 15.6233 87.4297C15.7099 87.7533 15.8398 88.0404 16.013 88.291C16.1907 88.5417 16.4117 88.7399 16.6761 88.8857C16.9404 89.027 17.248 89.0977 17.5989 89.0977C17.9453 89.0977 18.2483 89.027 18.5081 88.8857C18.7724 88.7399 18.9912 88.5417 19.1644 88.291C19.3375 88.0404 19.4674 87.7533 19.554 87.4297C19.6451 87.1016 19.6907 86.7529 19.6907 86.3838V86.2266C19.6907 85.862 19.6451 85.5179 19.554 85.1943C19.4674 84.8662 19.3352 84.5768 19.1575 84.3262C18.9843 84.071 18.7656 83.8704 18.5013 83.7246C18.2415 83.5788 17.9362 83.5059 17.5852 83.5059C17.2389 83.5059 16.9336 83.5788 16.6692 83.7246C16.4095 83.8704 16.1907 84.071 16.013 84.3262C15.8398 84.5768 15.7099 84.8662 15.6233 85.1943C15.5367 85.5179 15.4935 85.862 15.4935 86.2266ZM30.2935 88.291V82.6035H31.565V90H30.3551L30.2935 88.291ZM30.5328 86.7324L31.0592 86.7188C31.0592 87.2109 31.0067 87.6667 30.9019 88.0859C30.8017 88.5007 30.6376 88.8607 30.4097 89.166C30.1819 89.4714 29.8834 89.7106 29.5142 89.8838C29.1451 90.0524 28.6962 90.1367 28.1676 90.1367C27.8075 90.1367 27.4771 90.0843 27.1763 89.9795C26.8801 89.8747 26.6249 89.7129 26.4107 89.4941C26.1965 89.2754 26.0302 88.9906 25.9117 88.6396C25.7978 88.2887 25.7408 87.8672 25.7408 87.375V82.6035H27.0054V87.3887C27.0054 87.7214 27.0419 87.9971 27.1148 88.2158C27.1923 88.43 27.2948 88.6009 27.4224 88.7285C27.5546 88.8516 27.7004 88.9382 27.8599 88.9883C28.024 89.0384 28.1926 89.0635 28.3658 89.0635C28.9036 89.0635 29.3297 88.9609 29.6441 88.7559C29.9586 88.5462 30.1842 88.266 30.3209 87.915C30.4622 87.5596 30.5328 87.1654 30.5328 86.7324ZM37.9774 83.7656V90H36.7127V82.6035H37.9432L37.9774 83.7656ZM40.2879 82.5625L40.2811 83.7383C40.1763 83.7155 40.076 83.7018 39.9803 83.6973C39.8892 83.6882 39.7844 83.6836 39.6659 83.6836C39.3742 83.6836 39.1167 83.7292 38.8934 83.8203C38.6701 83.9115 38.481 84.0391 38.326 84.2031C38.1711 84.3672 38.048 84.5632 37.9569 84.791C37.8703 85.0143 37.8133 85.2604 37.786 85.5293L37.4305 85.7344C37.4305 85.2878 37.4738 84.8685 37.5604 84.4766C37.6516 84.0846 37.7905 83.7383 37.9774 83.4375C38.1642 83.1322 38.4012 82.8952 38.6883 82.7266C38.98 82.5534 39.3264 82.4668 39.7274 82.4668C39.8185 82.4668 39.9234 82.4782 40.0419 82.501C40.1603 82.5192 40.2424 82.5397 40.2879 82.5625ZM53.6186 88.8584L55.642 82.6035H56.934L54.2748 90H53.4272L53.6186 88.8584ZM51.9301 82.6035L54.0151 88.8926L54.1586 90H53.311L50.6313 82.6035H51.9301ZM60.9265 86.3838V86.2266C60.9265 85.6934 61.0039 85.1989 61.1589 84.7432C61.3138 84.2829 61.5371 83.8841 61.8288 83.5469C62.1205 83.2051 62.4737 82.9408 62.8884 82.7539C63.3031 82.5625 63.7679 82.4668 64.2829 82.4668C64.8024 82.4668 65.2696 82.5625 65.6843 82.7539C66.1035 82.9408 66.459 83.2051 66.7507 83.5469C67.0469 83.8841 67.2725 84.2829 67.4274 84.7432C67.5824 85.1989 67.6599 85.6934 67.6599 86.2266V86.3838C67.6599 86.917 67.5824 87.4115 67.4274 87.8672C67.2725 88.3229 67.0469 88.7217 66.7507 89.0635C66.459 89.4007 66.1058 89.665 65.6911 89.8564C65.281 90.0433 64.8161 90.1367 64.2966 90.1367C63.777 90.1367 63.3099 90.0433 62.8952 89.8564C62.4805 89.665 62.125 89.4007 61.8288 89.0635C61.5371 88.7217 61.3138 88.3229 61.1589 87.8672C61.0039 87.4115 60.9265 86.917 60.9265 86.3838ZM62.1911 86.2266V86.3838C62.1911 86.7529 62.2344 87.1016 62.321 87.4297C62.4076 87.7533 62.5375 88.0404 62.7106 88.291C62.8884 88.5417 63.1094 88.7399 63.3737 88.8857C63.638 89.027 63.9457 89.0977 64.2966 89.0977C64.6429 89.0977 64.946 89.027 65.2058 88.8857C65.4701 88.7399 65.6888 88.5417 65.862 88.291C66.0352 88.0404 66.1651 87.7533 66.2517 87.4297C66.3428 87.1016 66.3884 86.7529 66.3884 86.3838V86.2266C66.3884 85.862 66.3428 85.5179 66.2517 85.1943C66.1651 84.8662 66.0329 84.5768 65.8552 84.3262C65.682 84.071 65.4632 83.8704 65.1989 83.7246C64.9392 83.5788 64.6338 83.5059 64.2829 83.5059C63.9366 83.5059 63.6312 83.5788 63.3669 83.7246C63.1071 83.8704 62.8884 84.071 62.7106 84.3262C62.5375 84.5768 62.4076 84.8662 62.321 85.1943C62.2344 85.5179 62.1911 85.862 62.1911 86.2266ZM75.5625 82.6035V83.5742H71.5635V82.6035H75.5625ZM72.917 80.8057H74.1816V88.168C74.1816 88.4186 74.2204 88.6077 74.2978 88.7354C74.3753 88.863 74.4756 88.9473 74.5986 88.9883C74.7217 89.0293 74.8538 89.0498 74.9951 89.0498C75.0999 89.0498 75.2093 89.0407 75.3232 89.0225C75.4417 88.9997 75.5306 88.9814 75.5898 88.9678L75.5967 90C75.4964 90.0319 75.3642 90.0615 75.2002 90.0889C75.0407 90.1208 74.847 90.1367 74.6191 90.1367C74.3092 90.1367 74.0244 90.0752 73.7646 89.9521C73.5049 89.8291 73.2975 89.624 73.1426 89.3369C72.9922 89.0452 72.917 88.6533 72.917 88.1611V80.8057ZM81.5305 83.7656V90H80.2659V82.6035H81.4963L81.5305 83.7656ZM83.8411 82.5625L83.8342 83.7383C83.7294 83.7155 83.6292 83.7018 83.5335 83.6973C83.4423 83.6882 83.3375 83.6836 83.219 83.6836C82.9273 83.6836 82.6698 83.7292 82.4465 83.8203C82.2232 83.9115 82.0341 84.0391 81.8792 84.2031C81.7242 84.3672 81.6012 84.5632 81.51 84.791C81.4234 85.0143 81.3665 85.2604 81.3391 85.5293L80.9837 85.7344C80.9837 85.2878 81.0269 84.8685 81.1135 84.4766C81.2047 84.0846 81.3437 83.7383 81.5305 83.4375C81.7174 83.1322 81.9544 82.8952 82.2415 82.7266C82.5331 82.5534 82.8795 82.4668 83.2805 82.4668C83.3717 82.4668 83.4765 82.4782 83.595 82.501C83.7135 82.5192 83.7955 82.5397 83.8411 82.5625ZM91.1626 90.1367C90.6477 90.1367 90.1805 90.0501 89.7613 89.877C89.3466 89.6992 88.9888 89.4508 88.688 89.1318C88.3918 88.8128 88.1639 88.4346 88.0044 87.9971C87.8449 87.5596 87.7652 87.0811 87.7652 86.5615V86.2744C87.7652 85.6729 87.854 85.1374 88.0318 84.668C88.2095 84.194 88.451 83.793 88.7564 83.4648C89.0617 83.1367 89.4081 82.8883 89.7954 82.7197C90.1828 82.5511 90.5839 82.4668 90.9986 82.4668C91.5272 82.4668 91.9829 82.5579 92.3658 82.7402C92.7531 82.9225 93.0699 83.1777 93.316 83.5059C93.562 83.8294 93.7443 84.2122 93.8628 84.6543C93.9813 85.0918 94.0406 85.5703 94.0406 86.0898V86.6572H88.5171V85.625H92.7759V85.5293C92.7577 85.2012 92.6893 84.8822 92.5708 84.5723C92.4569 84.2624 92.2746 84.0072 92.024 83.8066C91.7733 83.6061 91.4315 83.5059 90.9986 83.5059C90.7115 83.5059 90.4471 83.5674 90.2056 83.6904C89.9641 83.8089 89.7567 83.9867 89.5835 84.2236C89.4104 84.4606 89.2759 84.75 89.1802 85.0918C89.0845 85.4336 89.0367 85.8278 89.0367 86.2744V86.5615C89.0367 86.9124 89.0845 87.2428 89.1802 87.5527C89.2805 87.8581 89.424 88.127 89.6109 88.3594C89.8023 88.5918 90.0324 88.7741 90.3013 88.9062C90.5747 89.0384 90.8846 89.1045 91.231 89.1045C91.6776 89.1045 92.0559 89.0133 92.3658 88.8311C92.6757 88.6488 92.9468 88.4049 93.1792 88.0996L93.9449 88.708C93.7854 88.9495 93.5826 89.1797 93.3365 89.3984C93.0904 89.6172 92.7873 89.7949 92.4273 89.9316C92.0718 90.0684 91.6503 90.1367 91.1626 90.1367ZM108.39 89.0977C108.691 89.0977 108.969 89.0361 109.224 88.9131C109.479 88.79 109.689 88.6214 109.853 88.4072C110.017 88.1885 110.11 87.9401 110.133 87.6621H111.336C111.313 88.0996 111.165 88.5075 110.892 88.8857C110.623 89.2594 110.27 89.5625 109.832 89.7949C109.395 90.0228 108.914 90.1367 108.39 90.1367C107.834 90.1367 107.348 90.0387 106.934 89.8428C106.524 89.6468 106.182 89.3779 105.908 89.0361C105.639 88.6943 105.437 88.3024 105.3 87.8604C105.168 87.4137 105.102 86.9421 105.102 86.4453V86.1582C105.102 85.6615 105.168 85.1921 105.3 84.75C105.437 84.3034 105.639 83.9092 105.908 83.5674C106.182 83.2256 106.524 82.9567 106.934 82.7607C107.348 82.5648 107.834 82.4668 108.39 82.4668C108.969 82.4668 109.474 82.5853 109.907 82.8223C110.34 83.0547 110.68 83.3737 110.926 83.7793C111.177 84.1803 111.313 84.6361 111.336 85.1465H110.133C110.11 84.8411 110.024 84.5654 109.873 84.3193C109.727 84.0732 109.527 83.8773 109.272 83.7314C109.021 83.5811 108.727 83.5059 108.39 83.5059C108.002 83.5059 107.677 83.5833 107.412 83.7383C107.152 83.8887 106.945 84.0938 106.79 84.3535C106.64 84.6087 106.53 84.8936 106.462 85.208C106.398 85.5179 106.366 85.8346 106.366 86.1582V86.4453C106.366 86.7689 106.398 87.0879 106.462 87.4023C106.526 87.7168 106.633 88.0016 106.783 88.2568C106.938 88.512 107.146 88.7171 107.405 88.8721C107.67 89.0225 107.998 89.0977 108.39 89.0977ZM115.643 86.3838V86.2266C115.643 85.6934 115.72 85.1989 115.875 84.7432C116.03 84.2829 116.254 83.8841 116.545 83.5469C116.837 83.2051 117.19 82.9408 117.605 82.7539C118.02 82.5625 118.484 82.4668 118.999 82.4668C119.519 82.4668 119.986 82.5625 120.401 82.7539C120.82 82.9408 121.175 83.2051 121.467 83.5469C121.763 83.8841 121.989 84.2829 122.144 84.7432C122.299 85.1989 122.376 85.6934 122.376 86.2266V86.3838C122.376 86.917 122.299 87.4115 122.144 87.8672C121.989 88.3229 121.763 88.7217 121.467 89.0635C121.175 89.4007 120.822 89.665 120.408 89.8564C119.997 90.0433 119.533 90.1367 119.013 90.1367C118.494 90.1367 118.026 90.0433 117.612 89.8564C117.197 89.665 116.842 89.4007 116.545 89.0635C116.254 88.7217 116.03 88.3229 115.875 87.8672C115.72 87.4115 115.643 86.917 115.643 86.3838ZM116.908 86.2266V86.3838C116.908 86.7529 116.951 87.1016 117.037 87.4297C117.124 87.7533 117.254 88.0404 117.427 88.291C117.605 88.5417 117.826 88.7399 118.09 88.8857C118.355 89.027 118.662 89.0977 119.013 89.0977C119.359 89.0977 119.662 89.027 119.922 88.8857C120.187 88.7399 120.405 88.5417 120.578 88.291C120.752 88.0404 120.882 87.7533 120.968 87.4297C121.059 87.1016 121.105 86.7529 121.105 86.3838V86.2266C121.105 85.862 121.059 85.5179 120.968 85.1943C120.882 84.8662 120.749 84.5768 120.572 84.3262C120.398 84.071 120.18 83.8704 119.915 83.7246C119.656 83.5788 119.35 83.5059 118.999 83.5059C118.653 83.5059 118.348 83.5788 118.083 83.7246C117.824 83.8704 117.605 84.071 117.427 84.3262C117.254 84.5768 117.124 84.8662 117.037 85.1943C116.951 85.5179 116.908 85.862 116.908 86.2266ZM128.447 84.1826V90H127.182V82.6035H128.379L128.447 84.1826ZM128.146 86.0215L127.62 86.001C127.624 85.4951 127.7 85.028 127.845 84.5996C127.991 84.1667 128.196 83.7907 128.461 83.4717C128.725 83.1527 129.039 82.9066 129.404 82.7334C129.773 82.5557 130.181 82.4668 130.628 82.4668C130.992 82.4668 131.32 82.5169 131.612 82.6172C131.904 82.7129 132.152 82.8678 132.357 83.082C132.567 83.2962 132.726 83.5742 132.836 83.916C132.945 84.2533 133 84.6657 133 85.1533V90H131.728V85.1396C131.728 84.7523 131.671 84.4424 131.557 84.21C131.443 83.973 131.277 83.8021 131.058 83.6973C130.84 83.5879 130.571 83.5332 130.252 83.5332C129.937 83.5332 129.65 83.5993 129.39 83.7314C129.135 83.8636 128.914 84.0459 128.727 84.2783C128.545 84.5107 128.401 84.7773 128.297 85.0781C128.196 85.3743 128.146 85.6888 128.146 86.0215ZM140.027 90H138.763V81.8242C138.763 81.291 138.858 80.8421 139.05 80.4775C139.246 80.1084 139.526 79.8304 139.891 79.6436C140.255 79.4521 140.688 79.3564 141.189 79.3564C141.335 79.3564 141.481 79.3656 141.627 79.3838C141.777 79.402 141.923 79.4294 142.064 79.4658L141.996 80.498C141.9 80.4753 141.791 80.4593 141.668 80.4502C141.549 80.4411 141.431 80.4365 141.312 80.4365C141.044 80.4365 140.811 80.4912 140.615 80.6006C140.424 80.7054 140.278 80.8604 140.178 81.0654C140.077 81.2705 140.027 81.5234 140.027 81.8242V90ZM141.6 82.6035V83.5742H137.594V82.6035H141.6ZM145.893 86.3838V86.2266C145.893 85.6934 145.97 85.1989 146.125 84.7432C146.28 84.2829 146.503 83.8841 146.795 83.5469C147.087 83.2051 147.44 82.9408 147.855 82.7539C148.269 82.5625 148.734 82.4668 149.249 82.4668C149.769 82.4668 150.236 82.5625 150.651 82.7539C151.07 82.9408 151.425 83.2051 151.717 83.5469C152.013 83.8841 152.239 84.2829 152.394 84.7432C152.549 85.1989 152.626 85.6934 152.626 86.2266V86.3838C152.626 86.917 152.549 87.4115 152.394 87.8672C152.239 88.3229 152.013 88.7217 151.717 89.0635C151.425 89.4007 151.072 89.665 150.657 89.8564C150.247 90.0433 149.782 90.1367 149.263 90.1367C148.743 90.1367 148.276 90.0433 147.862 89.8564C147.447 89.665 147.091 89.4007 146.795 89.0635C146.503 88.7217 146.28 88.3229 146.125 87.8672C145.97 87.4115 145.893 86.917 145.893 86.3838ZM147.157 86.2266V86.3838C147.157 86.7529 147.201 87.1016 147.287 87.4297C147.374 87.7533 147.504 88.0404 147.677 88.291C147.855 88.5417 148.076 88.7399 148.34 88.8857C148.604 89.027 148.912 89.0977 149.263 89.0977C149.609 89.0977 149.912 89.027 150.172 88.8857C150.436 88.7399 150.655 88.5417 150.828 88.291C151.002 88.0404 151.131 87.7533 151.218 87.4297C151.309 87.1016 151.355 86.7529 151.355 86.3838V86.2266C151.355 85.862 151.309 85.5179 151.218 85.1943C151.131 84.8662 150.999 84.5768 150.822 84.3262C150.648 84.071 150.43 83.8704 150.165 83.7246C149.905 83.5788 149.6 83.5059 149.249 83.5059C148.903 83.5059 148.598 83.5788 148.333 83.7246C148.073 83.8704 147.855 84.071 147.677 84.3262C147.504 84.5768 147.374 84.8662 147.287 85.1943C147.201 85.5179 147.157 85.862 147.157 86.2266ZM158.697 83.7656V90H157.432V82.6035H158.663L158.697 83.7656ZM161.007 82.5625L161 83.7383C160.896 83.7155 160.795 83.7018 160.7 83.6973C160.609 83.6882 160.504 83.6836 160.385 83.6836C160.094 83.6836 159.836 83.7292 159.613 83.8203C159.389 83.9115 159.2 84.0391 159.045 84.2031C158.89 84.3672 158.767 84.5632 158.676 84.791C158.59 85.0143 158.533 85.2604 158.505 85.5293L158.15 85.7344C158.15 85.2878 158.193 84.8685 158.28 84.4766C158.371 84.0846 158.51 83.7383 158.697 83.4375C158.884 83.1322 159.121 82.8952 159.408 82.7266C159.699 82.5534 160.046 82.4668 160.447 82.4668C160.538 82.4668 160.643 82.4782 160.761 82.501C160.88 82.5192 160.962 82.5397 161.007 82.5625ZM168.835 82.6035V83.5742H164.836V82.6035H168.835ZM166.189 80.8057H167.454V88.168C167.454 88.4186 167.493 88.6077 167.57 88.7354C167.648 88.863 167.748 88.9473 167.871 88.9883C167.994 89.0293 168.126 89.0498 168.267 89.0498C168.372 89.0498 168.482 89.0407 168.595 89.0225C168.714 88.9997 168.803 88.9814 168.862 88.9678L168.869 90C168.769 90.0319 168.637 90.0615 168.472 90.0889C168.313 90.1208 168.119 90.1367 167.891 90.1367C167.581 90.1367 167.297 90.0752 167.037 89.9521C166.777 89.8291 166.57 89.624 166.415 89.3369C166.264 89.0452 166.189 88.6533 166.189 88.1611V80.8057ZM184.893 88.5645V79.5H186.164V90H185.002L184.893 88.5645ZM179.916 86.3838V86.2402C179.916 85.6751 179.985 85.1624 180.121 84.7021C180.263 84.2373 180.461 83.8385 180.716 83.5059C180.976 83.1732 181.284 82.918 181.639 82.7402C181.999 82.5579 182.4 82.4668 182.842 82.4668C183.307 82.4668 183.713 82.5488 184.059 82.7129C184.41 82.8724 184.706 83.1071 184.948 83.417C185.194 83.7223 185.387 84.0915 185.529 84.5244C185.67 84.9574 185.768 85.4473 185.823 85.9941V86.623C185.772 87.1654 185.674 87.653 185.529 88.0859C185.387 88.5189 185.194 88.888 184.948 89.1934C184.706 89.4987 184.41 89.7334 184.059 89.8975C183.708 90.057 183.298 90.1367 182.828 90.1367C182.396 90.1367 181.999 90.0433 181.639 89.8564C181.284 89.6696 180.976 89.4076 180.716 89.0703C180.461 88.7331 180.263 88.3366 180.121 87.8809C179.985 87.4206 179.916 86.9215 179.916 86.3838ZM181.188 86.2402V86.3838C181.188 86.7529 181.224 87.0993 181.297 87.4229C181.375 87.7464 181.493 88.0312 181.653 88.2773C181.812 88.5234 182.015 88.7171 182.261 88.8584C182.507 88.9951 182.801 89.0635 183.143 89.0635C183.562 89.0635 183.906 88.9746 184.175 88.7969C184.449 88.6191 184.667 88.3844 184.831 88.0928C184.995 87.8011 185.123 87.4844 185.214 87.1426V85.4951C185.16 85.2445 185.08 85.0029 184.975 84.7705C184.875 84.5335 184.743 84.3239 184.578 84.1416C184.419 83.9548 184.221 83.8066 183.984 83.6973C183.751 83.5879 183.476 83.5332 183.157 83.5332C182.81 83.5332 182.512 83.6061 182.261 83.752C182.015 83.8932 181.812 84.0892 181.653 84.3398C181.493 84.5859 181.375 84.873 181.297 85.2012C181.224 85.5247 181.188 85.8711 181.188 86.2402ZM194.422 90.1367C193.907 90.1367 193.44 90.0501 193.021 89.877C192.606 89.6992 192.249 89.4508 191.948 89.1318C191.652 88.8128 191.424 88.4346 191.264 87.9971C191.105 87.5596 191.025 87.0811 191.025 86.5615V86.2744C191.025 85.6729 191.114 85.1374 191.292 84.668C191.469 84.194 191.711 83.793 192.016 83.4648C192.322 83.1367 192.668 82.8883 193.055 82.7197C193.443 82.5511 193.844 82.4668 194.258 82.4668C194.787 82.4668 195.243 82.5579 195.626 82.7402C196.013 82.9225 196.33 83.1777 196.576 83.5059C196.822 83.8294 197.004 84.2122 197.123 84.6543C197.241 85.0918 197.3 85.5703 197.3 86.0898V86.6572H191.777V85.625H196.036V85.5293C196.018 85.2012 195.949 84.8822 195.831 84.5723C195.717 84.2624 195.534 84.0072 195.284 83.8066C195.033 83.6061 194.691 83.5059 194.258 83.5059C193.971 83.5059 193.707 83.5674 193.465 83.6904C193.224 83.8089 193.017 83.9867 192.843 84.2236C192.67 84.4606 192.536 84.75 192.44 85.0918C192.344 85.4336 192.296 85.8278 192.296 86.2744V86.5615C192.296 86.9124 192.344 87.2428 192.44 87.5527C192.54 87.8581 192.684 88.127 192.871 88.3594C193.062 88.5918 193.292 88.7741 193.561 88.9062C193.835 89.0384 194.144 89.1045 194.491 89.1045C194.937 89.1045 195.316 89.0133 195.626 88.8311C195.935 88.6488 196.207 88.4049 196.439 88.0996L197.205 88.708C197.045 88.9495 196.842 89.1797 196.596 89.3984C196.35 89.6172 196.047 89.7949 195.687 89.9316C195.332 90.0684 194.91 90.1367 194.422 90.1367ZM210.939 88.8584L212.962 82.6035H214.254L211.595 90H210.747L210.939 88.8584ZM209.25 82.6035L211.335 88.8926L211.479 90H210.631L207.951 82.6035H209.25ZM220.065 82.6035V90H218.793V82.6035H220.065ZM218.698 80.6416C218.698 80.4365 218.759 80.2633 218.882 80.1221C219.01 79.9808 219.197 79.9102 219.443 79.9102C219.684 79.9102 219.869 79.9808 219.997 80.1221C220.129 80.2633 220.195 80.4365 220.195 80.6416C220.195 80.8376 220.129 81.0062 219.997 81.1475C219.869 81.2842 219.684 81.3525 219.443 81.3525C219.197 81.3525 219.01 81.2842 218.882 81.1475C218.759 81.0062 218.698 80.8376 218.698 80.6416ZM228.385 90.1367C227.87 90.1367 227.402 90.0501 226.983 89.877C226.568 89.6992 226.211 89.4508 225.91 89.1318C225.614 88.8128 225.386 88.4346 225.226 87.9971C225.067 87.5596 224.987 87.0811 224.987 86.5615V86.2744C224.987 85.6729 225.076 85.1374 225.254 84.668C225.431 84.194 225.673 83.793 225.978 83.4648C226.284 83.1367 226.63 82.8883 227.017 82.7197C227.405 82.5511 227.806 82.4668 228.22 82.4668C228.749 82.4668 229.205 82.5579 229.588 82.7402C229.975 82.9225 230.292 83.1777 230.538 83.5059C230.784 83.8294 230.966 84.2122 231.085 84.6543C231.203 85.0918 231.262 85.5703 231.262 86.0898V86.6572H225.739V85.625H229.998V85.5293C229.98 85.2012 229.911 84.8822 229.793 84.5723C229.679 84.2624 229.496 84.0072 229.246 83.8066C228.995 83.6061 228.653 83.5059 228.22 83.5059C227.933 83.5059 227.669 83.5674 227.427 83.6904C227.186 83.8089 226.979 83.9867 226.805 84.2236C226.632 84.4606 226.498 84.75 226.402 85.0918C226.306 85.4336 226.259 85.8278 226.259 86.2744V86.5615C226.259 86.9124 226.306 87.2428 226.402 87.5527C226.502 87.8581 226.646 88.127 226.833 88.3594C227.024 88.5918 227.254 88.7741 227.523 88.9062C227.797 89.0384 228.107 89.1045 228.453 89.1045C228.899 89.1045 229.278 89.0133 229.588 88.8311C229.898 88.6488 230.169 88.4049 230.401 88.0996L231.167 88.708C231.007 88.9495 230.804 89.1797 230.558 89.3984C230.312 89.6172 230.009 89.7949 229.649 89.9316C229.294 90.0684 228.872 90.1367 228.385 90.1367Z" fill="#365DDC"/>
</svg>
